<?xml version="1.0" encoding="UTF-8"?>
<svg width="32px" height="21px" viewBox="0 0 32 21" version="1.1" xmlns="http://www.w3.org/2000/svg" xmlns:xlink="http://www.w3.org/1999/xlink">
    <!-- Generator: Sketch 46.1 (44463) - http://www.bohemiancoding.com/sketch -->
    <title>-e-new_patient_icon@3x</title>
    <desc>Created with Sketch.</desc>
    <defs></defs>
    <g id="_Symbols" stroke="none" stroke-width="1" fill="none" fill-rule="evenodd">
        <g id="btn_create_new_patient/option" transform="translate(-14.000000, -8.000000)" fill="#FFFFFF">
            <g id="-e-new_patient_icon" transform="translate(14.000000, 8.000000)">
                <path d="M16.2857337,11.2857051 L16.2857337,9.57141733 C16.2857337,9.10266677 15.8973404,8.71427345 15.4285898,8.71427345 L12.0000143,8.71427345 L12.0000143,5.28569794 C12.0000143,4.81694738 11.611621,4.42855406 11.1428704,4.42855406 L9.42858267,4.42855406 C8.95983211,4.42855406 8.57143879,4.81694738 8.57143879,5.28569794 L8.57143879,8.71427345 L5.14286327,8.71427345 C4.67411271,8.71427345 4.28571939,9.10266677 4.28571939,9.57141733 L4.28571939,11.2857051 C4.28571939,11.7544556 4.67411271,12.142849 5.14286327,12.142849 L8.57143879,12.142849 L8.57143879,15.5714245 C8.57143879,16.040175 8.95983211,16.4285684 9.42858267,16.4285684 L11.1428704,16.4285684 C11.611621,16.4285684 12.0000143,16.040175 12.0000143,15.5714245 L12.0000143,12.142849 L15.4285898,12.142849 C15.8973404,12.142849 16.2857337,11.7544556 16.2857337,11.2857051 Z M20.5714531,10.4285612 C20.5714531,16.1071394 15.9643047,20.7142878 10.2857265,20.7142878 C4.60714835,20.7142878 0,16.1071394 0,10.4285612 C0,4.74998301 4.60714835,0.142834663 10.2857265,0.142834663 C15.9643047,0.142834663 20.5714531,4.74998301 20.5714531,10.4285612 Z" id=""></path>
                <path d="M31.8571582,14.7667563 C31.8571582,16.2332759 30.8928713,17.4285898 29.7176467,17.4285898 L21.1395115,17.4285898 C19.9642869,17.4285898 19,16.2332759 19,14.7667563 C19,12.1250121 19.6529026,9.071437 22.2846021,9.071437 C23.0982192,9.86496473 24.2031312,10.3571528 25.4285791,10.3571528 C26.654027,10.3571528 27.758939,9.86496473 28.5725561,9.071437 C31.2042556,9.071437 31.8571582,12.1250121 31.8571582,14.7667563 Z M29.2857265,5.85714746 C29.2857265,7.98661428 27.5580459,9.71429491 25.4285791,9.71429491 C23.2991123,9.71429491 21.5714316,7.98661428 21.5714316,5.85714746 C21.5714316,3.72768063 23.2991123,2 25.4285791,2 C27.5580459,2 29.2857265,3.72768063 29.2857265,5.85714746 Z" id="-copy"></path>
            </g>
        </g>
    </g>
</svg>