<svg xmlns="http://www.w3.org/2000/svg" xmlns:xlink="http://www.w3.org/1999/xlink" width="246" height="47" viewBox="0 0 246 47">
    <defs>
        <path id="a" d="M.422 7H6.79V.672H.42z"/>
    </defs>
    <g fill="none" fill-rule="evenodd">
        <g fill="#FFF">
            <path d="M62.11 14.918c-1.093 0-3.021.239-4.456 1.714V9.16c0-.774-.63-1.405-1.404-1.405h-.213c-.775 0-1.404.63-1.404 1.405v19.675c0 .773.629 1.403 1.404 1.403h.213c.774 0 1.404-.63 1.404-1.403v-6.988c0-2.372 1.65-4.03 4.014-4.03 2.357 0 3.709 1.447 3.709 3.969v7.049c0 .773.63 1.403 1.404 1.403h.229c.774 0 1.404-.63 1.404-1.403v-7.857c0-3.624-2.533-6.06-6.304-6.06M78.596 14.918c-4.324 0-7.462 3.287-7.462 7.813 0 4.6 3.13 7.812 7.615 7.812 2.147 0 3.842-.512 5.336-1.608a1.22 1.22 0 0 0 .485-.82c.047-.34-.047-.69-.258-.962a1.477 1.477 0 0 0-1.967-.352 6.406 6.406 0 0 1-3.444 1.026c-2.467 0-4.21-1.502-4.614-3.944h10.19a1.2 1.2 0 0 0 1.2-1.197v-.003c-.031-4.572-2.943-7.765-7.081-7.765m3.958 6.416h-8.225c.465-2.304 2.024-3.668 4.22-3.668 2.114 0 3.626 1.397 4.005 3.668M101.43 15.224h-.23c-.773 0-1.402.63-1.402 1.404v.13c-1.244-1.205-2.902-1.84-4.837-1.84-4.281 0-7.508 3.36-7.508 7.814 0 4.454 3.227 7.812 7.508 7.812 1.93 0 3.588-.63 4.837-1.83v.12c0 .775.629 1.406 1.403 1.406h.229c.774 0 1.404-.631 1.404-1.405V16.628c0-.774-.63-1.404-1.404-1.404m-6.18 12.45c-2.732 0-4.715-2.078-4.715-4.942 0-2.856 1.983-4.928 4.715-4.928 2.723 0 4.7 2.072 4.7 4.928 0 2.864-1.977 4.943-4.7 4.943M107.916 7.756h-.213c-.774 0-1.405.63-1.405 1.404v19.675c0 .774.631 1.404 1.405 1.404h.213c.774 0 1.404-.63 1.404-1.404V9.16c0-.774-.63-1.404-1.404-1.404M122.01 27.217c-.655.299-1.337.458-1.972.458-1.586 0-2.46-1.015-2.46-2.856v-6.787h4.677a1.405 1.405 0 0 0 0-2.808h-4.677v-3.137c0-.775-.63-1.404-1.404-1.404h-.229c-.773 0-1.403.629-1.403 1.404v3.137h-1.69c-.774 0-1.405.63-1.405 1.404 0 .774.631 1.404 1.405 1.404h1.69v6.833c0 3.662 1.876 5.679 5.282 5.679a7.46 7.46 0 0 0 3.435-.827c.343-.176.59-.48.694-.857a1.424 1.424 0 0 0-.165-1.13c-.368-.59-1.132-.81-1.778-.513M133.827 14.918c-1.093 0-3.022.239-4.456 1.714V9.16c0-.774-.63-1.405-1.404-1.405h-.213c-.775 0-1.404.63-1.404 1.405v19.675c0 .773.63 1.403 1.404 1.403h.213c.774 0 1.404-.63 1.404-1.403v-6.988c0-2.372 1.65-4.03 4.014-4.03 2.357 0 3.71 1.447 3.71 3.969v7.049c0 .773.628 1.403 1.403 1.403h.228c.775 0 1.404-.63 1.404-1.403v-7.857c0-3.624-2.533-6.06-6.303-6.06M156.63 15.224h-.228c-.774 0-1.404.63-1.404 1.404v.124c-1.197-1.202-2.812-1.833-4.716-1.833-4.305 0-7.43 3.235-7.43 7.69 0 4.466 3.125 7.707 7.43 7.707 1.909 0 3.524-.626 4.716-1.82v.576c0 2.942-1.842 4.699-4.93 4.699a8.28 8.28 0 0 1-3.922-1.001 1.347 1.347 0 0 0-1.03-.104 1.387 1.387 0 0 0-.83.677l-.03.057a1.41 1.41 0 0 0 .539 1.889c1.46.82 3.384 1.29 5.274 1.29 4.913 0 7.965-2.918 7.965-7.614V16.628c0-.774-.63-1.404-1.404-1.404m-1.42 7.385c0 2.794-1.95 4.822-4.637 4.822-2.69 0-4.64-2.028-4.64-4.822 0-2.784 1.95-4.805 4.64-4.805 2.688 0 4.638 2.02 4.638 4.805M169.914 15.031a8.47 8.47 0 0 0-1.455-.112c-1.551 0-2.935.605-3.968 1.721v-.013c0-.774-.63-1.404-1.405-1.404h-.182c-.774 0-1.404.63-1.404 1.404v12.208c0 .774.63 1.404 1.404 1.404h.213c.775 0 1.404-.63 1.404-1.404v-6.927c0-2.446 1.405-4.09 3.496-4.09a5.8 5.8 0 0 1 1.328.16 1.435 1.435 0 0 0 1.724-1.038l.024-.094a1.48 1.48 0 0 0-1.179-1.815M185.776 15.224h-.229c-.774 0-1.404.63-1.404 1.404v.13c-1.244-1.205-2.902-1.84-4.837-1.84-4.28 0-7.507 3.36-7.507 7.814 0 4.454 3.227 7.812 7.507 7.812 1.931 0 3.59-.63 4.837-1.83v.12c0 .775.63 1.406 1.404 1.406h.23c.773 0 1.403-.631 1.403-1.405V16.628c0-.774-.63-1.404-1.404-1.404m-6.18 12.45c-2.732 0-4.715-2.078-4.715-4.942 0-2.856 1.983-4.928 4.715-4.928 2.723 0 4.7 2.072 4.7 4.928 0 2.864-1.977 4.943-4.7 4.943M204.03 7.756h-.23c-.772 0-1.402.63-1.402 1.404v7.598c-1.244-1.206-2.902-1.84-4.837-1.84-4.28 0-7.507 3.359-7.507 7.813 0 4.455 3.227 7.813 7.507 7.813 1.93 0 3.589-.63 4.837-1.83v.122c0 .773.63 1.403 1.403 1.403h.229c.774 0 1.404-.63 1.404-1.403V9.16c0-.774-.63-1.404-1.404-1.404m-1.48 14.975c0 2.865-1.976 4.944-4.7 4.944-2.731 0-4.715-2.08-4.715-4.944 0-2.855 1.984-4.927 4.715-4.927 2.724 0 4.7 2.072 4.7 4.927M232.334 21.367l-1.678-.213c-2.275-.277-2.567-1.02-2.567-1.639 0-1.142 1.174-1.879 2.993-1.879 1.168 0 2.482.29 3.605.796a1.431 1.431 0 0 0 1.855-.6c.181-.325.221-.714.11-1.067a1.32 1.32 0 0 0-.695-.8c-1.393-.665-3.136-1.03-4.906-1.03-3.7 0-6.09 1.851-6.09 4.718 0 1.69.876 3.81 5.053 4.32l1.674.2c2.677.33 2.677 1.371 2.677 1.713 0 1.233-1.303 1.94-3.573 1.94-1.56 0-2.846-.297-3.931-.909a1.376 1.376 0 0 0-1.862.481 1.305 1.305 0 0 0-.156 1.025c.09.354.329.66.65.837 2.019 1.117 4.177 1.284 5.284 1.284 4.06 0 6.684-1.888 6.684-4.81 0-1.68-.889-3.8-5.127-4.367M215.769 14.918c-4.324 0-7.462 3.287-7.462 7.813 0 4.6 3.131 7.812 7.614 7.812 2.148 0 3.843-.512 5.336-1.608a1.22 1.22 0 0 0 .485-.82c.047-.34-.047-.69-.257-.962a1.493 1.493 0 0 0-1.967-.352 6.411 6.411 0 0 1-3.444 1.026c-2.467 0-4.211-1.502-4.614-3.944h10.191a1.2 1.2 0 0 0 1.199-1.197v-.003c-.032-4.572-2.944-7.765-7.081-7.765m3.958 6.416h-8.225c.465-2.304 2.024-3.668 4.221-3.668 2.113 0 3.625 1.397 4.004 3.668M245.38 27.646l-.69 1.62-.698-1.62h-.62v2.515h.444v-1.908l.655 1.537h.43l.651-1.543v1.914H246v-2.515h-.62zm-4.44.005v.416h.764v2.094h.451v-2.094h.77v-.416h-1.986z"/>
        </g>
        <g fill="#FFF">
            <path d="M31.702 12.43c.373.372.86.558 1.35.558.488 0 .976-.186 1.349-.559l7.032-7.032a1.907 1.907 0 0 0 0-2.699 1.907 1.907 0 0 0-2.7 0L31.703 9.73a1.907 1.907 0 0 0 0 2.7"/>
            <path d="M25.58 21.254l4.147-4.148a1.908 1.908 0 1 0-2.699-2.7l-2.633 2.633-.006-.023-.075.075a1.867 1.867 0 0 1-2.645 0 1.871 1.871 0 0 1 0-2.645l9.278-9.276a1.909 1.909 0 0 0-2.703-2.695L23.44 7.278a1.903 1.903 0 0 1-2.665-.016l-4.47-4.47C12.58-.93 6.52-.93 2.796 2.792A9.49 9.49 0 0 0 0 9.545a9.49 9.49 0 0 0 2.797 6.753l17.94 17.94.005-.013a1.898 1.898 0 0 0 2.645-.044L37.45 20.12a1.906 1.906 0 1 0-2.662-2.73l-.55.551-9.836 9.835a1.86 1.86 0 0 1-1.322.548 1.87 1.87 0 0 1-1.323-3.192M40.47 11.52a2.11 2.11 0 1 0-.001 4.218 2.11 2.11 0 0 0 .002-4.218"/>
        </g>
        <path fill="#FFF" d="M166.7 42.087c-.392-.275-1.145-.575-1.952-.575-.9 0-1.529.391-1.529 1.04 0 .533.421.826 1.31.93l.733.086c1.2.141 1.891.636 1.891 1.548 0 1.09-.998 1.725-2.478 1.725-.839 0-1.702-.226-2.369-.734l.325-.52c.446.35 1.058.648 2.05.648 1.04 0 1.756-.354 1.756-1.076 0-.532-.44-.857-1.328-.955l-.74-.079c-1.304-.147-1.867-.716-1.867-1.536 0-1.059.912-1.689 2.24-1.689.912 0 1.738.275 2.258.648l-.3.54zM178.332 43.22v3.53h-.697v-3.317c0-1.162-.68-1.872-1.854-1.872-1.083 0-1.928.777-1.928 1.91v3.28h-.697v-3.318c0-1.162-.673-1.872-1.848-1.872-1.083 0-1.928.777-1.928 1.91v3.28h-.697v-5.759h.69v1.01c.454-.77 1.262-1.102 2.057-1.102 1.077 0 1.897.496 2.24 1.34.428-.942 1.34-1.34 2.233-1.34 1.444 0 2.429.894 2.429 2.32M180.362 43.874c0 1.297.937 2.313 2.246 2.313 1.303 0 2.24-.991 2.24-2.313 0-1.321-.937-2.319-2.24-2.319-1.322 0-2.246 1.016-2.246 2.319zm5.14 2.876h-.69v-1.107c-.467.722-1.238 1.199-2.283 1.199-1.616 0-2.876-1.255-2.876-2.968s1.26-2.974 2.876-2.974c1.045 0 1.816.484 2.282 1.2v-1.108h.691v5.758zM191.12 41.115l-.177.679c-.281-.153-.673-.232-1.021-.232-.961 0-1.646.777-1.646 1.939v3.249h-.692v-5.758h.685v.979c.374-.672 1.016-1.076 1.775-1.076.41 0 .765.067 1.077.22M196.198 41.628h-2.655v3.14c0 .972.513 1.42 1.279 1.42.495 0 .948-.173 1.284-.442l.33.52c-.41.343-.978.575-1.67.575-1.2 0-1.921-.667-1.921-2.062v-3.15h-1.322v-.637h1.322v-1.879h.698v1.88h2.655v.635z"/>
        <g transform="translate(197 39.91)">
            <mask id="b" fill="#fff">
                <use xlink:href="#a"/>
            </mask>
            <path fill="#FFF" d="M2.392 3.836c0 .783.514 1.377 1.279 1.377.752 0 1.284-.582 1.284-1.377S4.423 2.46 3.67 2.46c-.765 0-1.28.593-1.28 1.376zM6.79 6.84H4.937v-.648c-.36.471-.911.808-1.725.808C1.609 7 .422 5.605.422 3.83.422 2.068 1.609.672 3.218.672c.808 0 1.359.343 1.719.814V.838H6.79V6.84z" mask="url(#b)"/>
        </g>
        <path fill="#FFF" d="M210.964 41.898l-1.5 1.046c-.3-.385-.642-.575-1.106-.575-.667 0-1.236.514-1.236 1.377 0 .869.556 1.377 1.223 1.377.453 0 .832-.203 1.132-.582l1.493 1.065c-.575.813-1.456 1.303-2.57 1.303-1.915 0-3.236-1.327-3.236-3.163 0-1.836 1.32-3.164 3.237-3.164 1.113 0 1.988.496 2.563 1.316M217.542 41.898l-1.499 1.046c-.3-.385-.643-.575-1.107-.575-.667 0-1.236.514-1.236 1.377 0 .869.556 1.377 1.223 1.377.453 0 .832-.203 1.132-.582l1.493 1.065c-.575.813-1.456 1.303-2.569 1.303-1.916 0-3.237-1.327-3.237-3.163 0-1.836 1.321-3.164 3.237-3.164 1.113 0 1.988.496 2.563 1.316M220.302 43.128h2.185c-.154-.6-.527-.918-1.083-.918-.594 0-.955.324-1.102.918m4.1.618c0 .195-.013.465-.037.593h-4.069c.16.655.624.961 1.285.961.447 0 .93-.184 1.31-.526l1.235 1.15c-.624.624-1.535.985-2.643.985-1.885 0-3.163-1.254-3.163-3.127 0-1.89 1.254-3.2 3.077-3.2 1.781 0 2.998 1.285 3.005 3.164M230.21 42.595c-.594-.25-1.365-.459-1.977-.465-.502 0-.697.147-.697.367 0 .257.379.318.966.41l.441.067c1.285.196 1.964.814 1.964 1.824 0 1.316-1.028 2.105-2.778 2.105-1.027 0-2.086-.184-2.772-.63l.667-1.48c.6.354 1.286.562 2.118.562.593 0 .838-.135.838-.392 0-.232-.27-.324-.949-.428l-.348-.049c-1.444-.214-2.118-.814-2.118-1.89 0-1.28.961-2.008 2.595-2.008.973 0 1.597.135 2.582.514l-.532 1.493zM236.696 42.595c-.594-.25-1.365-.459-1.977-.465-.502 0-.697.147-.697.367 0 .257.38.318.966.41l.441.067c1.285.196 1.964.814 1.964 1.824 0 1.316-1.028 2.105-2.778 2.105-1.027 0-2.086-.184-2.772-.63l.667-1.48c.6.354 1.286.562 2.118.562.593 0 .838-.135.838-.392 0-.232-.27-.324-.949-.428l-.348-.049c-1.444-.214-2.118-.814-2.118-1.89 0-1.28.961-2.008 2.595-2.008.973 0 1.597.135 2.582.514l-.532 1.493z"/>
    </g>
</svg>
